<svg width="200" height="72" viewBox="0 0 200 72" fill="none" xmlns="http://www.w3.org/2000/svg">
<g opacity="0.6">
<rect width="200" height="72" fill="white"/>
<path d="M41.045 19.6667L22.5527 41.8576H39.1958L37.3466 56.6513L55.8389 34.4606H39.1958L41.045 19.6667Z" fill="black"/>
<path d="M82.0187 35.1348V41.9803H72.1449V51.3561H64.3868V23.56H84.093V30.4053H72.1449V35.1348H82.0187Z" fill="black"/>
<path d="M94.9133 23.56V51.3561H87.7773V23.56H94.9133Z" fill="black"/>
<path d="M106.687 29.5756C107.793 29.5756 108.871 29.8245 109.922 30.3223C111.001 30.7925 111.886 31.401 112.578 32.1477V30.1978H119.714V51.356H112.578V47.8299C112.052 48.9914 111.25 49.9733 110.172 50.7754C109.093 51.5776 107.793 51.9785 106.272 51.9785C104.695 51.9785 103.215 51.5776 101.833 50.7754C100.45 49.9733 99.3155 48.7426 98.4308 47.083C97.5734 45.3958 97.1445 43.28 97.1445 40.7355C97.1445 38.3569 97.5734 36.3379 98.4308 34.6784C99.3155 33.019 100.477 31.7605 101.915 30.9031C103.382 30.0181 104.972 29.5756 106.687 29.5756ZM108.18 36.5454C107.157 36.5454 106.299 36.9602 105.608 37.7899C104.944 38.6197 104.612 39.6015 104.612 40.7355C104.612 41.8697 104.958 42.8239 105.649 43.598C106.341 44.3725 107.254 44.7599 108.388 44.7599C108.996 44.7599 109.618 44.6075 110.254 44.3034C110.89 43.9716 111.43 43.4874 111.872 42.8515C112.343 42.1876 112.578 41.344 112.578 40.3207V38.2878C111.969 37.7899 111.278 37.3751 110.503 37.0432C109.756 36.7113 108.982 36.5454 108.18 36.5454Z" fill="black"/>
<path d="M130.782 29.5756C132.165 29.5756 133.437 29.783 134.599 30.1978C135.788 30.5851 136.742 31.1244 137.461 31.8158V37.4166C136.742 36.974 135.926 36.5592 135.014 36.172C134.101 35.7571 133.119 35.5496 132.068 35.5496C131.404 35.5496 130.81 35.688 130.284 35.9645C129.786 36.2134 129.537 36.6145 129.537 37.1676C129.537 37.5549 129.69 37.8453 129.994 38.0389C130.298 38.2325 130.893 38.4399 131.778 38.6612L133.064 38.9931C136.742 39.9335 138.581 41.9111 138.581 44.9258C138.581 46.3085 138.167 47.5392 137.337 48.6182C136.535 49.6692 135.47 50.4986 134.143 51.1072C132.842 51.6882 131.432 51.9785 129.911 51.9785C128.334 51.9785 126.868 51.7573 125.513 51.3146C124.158 50.8446 122.996 50.2774 122.028 49.6139V44.0545C123.024 44.6628 124.144 45.1746 125.389 45.5893C126.661 46.0044 127.795 46.2118 128.791 46.2118C129.593 46.2118 130.174 46.115 130.533 45.9215C130.92 45.7279 131.114 45.382 131.114 44.8843C131.114 44.4969 130.893 44.2066 130.45 44.0131C130.007 43.7919 129.372 43.5427 128.542 43.2662L126.426 42.6023C124.877 42.1323 123.743 41.3993 123.024 40.4036C122.305 39.3803 121.945 38.1357 121.945 36.6698C121.945 35.2039 122.332 33.9455 123.107 32.8945C123.881 31.8435 124.932 31.0276 126.26 30.4468C127.615 29.866 129.122 29.5756 130.782 29.5756Z" fill="black"/>
<path d="M153.301 29.5756C155.459 29.5756 157.215 30.3085 158.57 31.7743C159.953 33.2402 160.644 35.4114 160.644 38.2878V51.356H153.509L153.467 39.4079C153.467 38.3569 153.177 37.624 152.596 37.2091C152.015 36.7666 151.365 36.5454 150.646 36.5454C149.872 36.5454 149.222 36.7528 148.696 37.1676C148.171 37.5549 147.714 38.025 147.327 38.5782V51.356H140.191V23.5599H147.327V32.936C147.991 32.0233 148.793 31.235 149.733 30.5712C150.701 29.9074 151.891 29.5756 153.301 29.5756Z" fill="black"/>
<path d="M160.284 23.7219V24.6045H159.222V27.2901H158.213V24.6045H157.15V23.7219H160.284Z" fill="black"/>
<path d="M164.426 23.6683V27.3062H163.418V25.5408L162.679 26.37H162.377L161.638 25.5408V27.3062H160.629V23.6683H160.985L162.528 25.2198L164.07 23.6683H164.426Z" fill="black"/>
</g>
</svg>
