<svg width="200" height="72" viewBox="0 0 200 72" fill="none" xmlns="http://www.w3.org/2000/svg">
<g opacity="0.6" clip-path="url(#clip0_6_6)">
<rect width="200" height="72" fill="white"/>
<path d="M81.9805 25.6494H86.2922V48.8664H81.9805V25.6494Z" fill="black"/>
<path d="M100.565 30.9562C102.799 30.9562 104.59 31.6085 105.939 32.9131C107.287 34.2177 107.962 36.1525 107.962 38.7174V48.8665H103.816V39.2483C103.816 37.7002 103.451 36.5394 102.721 35.7655C101.992 34.9695 100.952 34.5715 99.6037 34.5715C98.0778 34.5715 96.8726 35.0358 95.9884 35.9645C95.1039 36.8711 94.6614 38.1869 94.6614 39.9114V48.8665H90.5156V31.1553H94.4625V33.4438C95.1481 32.6256 96.0105 32.0066 97.0498 31.5864C98.0891 31.1663 99.2609 30.9562 100.565 30.9562Z" fill="black"/>
<path d="M127.823 31.1552L120.228 48.8664H115.949L108.354 31.1552H112.665L118.171 44.2894L123.843 31.1552H127.823Z" fill="black"/>
<path d="M144.92 40.1103C144.92 40.3981 144.898 40.8068 144.854 41.3376H130.956C131.2 42.6421 131.83 43.6814 132.847 44.4554C133.887 45.2074 135.169 45.5831 136.694 45.5831C138.64 45.5831 140.244 44.9417 141.504 43.6593L143.726 46.2133C142.93 47.1641 141.924 47.8827 140.708 48.3689C139.492 48.8556 138.121 49.0988 136.595 49.0988C134.649 49.0988 132.936 48.7117 131.454 47.9381C129.973 47.1641 128.823 46.0915 128.005 44.7207C127.209 43.3278 126.811 41.7576 126.811 40.011C126.811 38.2862 127.198 36.7384 127.972 35.3675C128.767 33.9745 129.862 32.891 131.255 32.1171C132.648 31.3432 134.218 30.9562 135.965 30.9562C137.69 30.9562 139.226 31.3432 140.575 32.1171C141.946 32.8689 143.007 33.9413 143.759 35.3343C144.533 36.7053 144.92 38.2974 144.92 40.1103ZM135.965 34.273C134.638 34.273 133.51 34.671 132.582 35.467C131.675 36.2409 131.122 37.2803 130.924 38.5848H140.973C140.796 37.3024 140.254 36.263 139.348 35.467C138.441 34.671 137.314 34.273 135.965 34.273Z" fill="black"/>
<path d="M151.191 33.7423C152.385 31.8849 154.486 31.2879 157.493 31.2879V34.6046C157.139 34.5383 156.819 34.5051 156.531 34.5051C154.917 34.5051 153.657 35.279 152.75 36.2298C151.844 37.1585 151.39 38.5072 151.39 40.2762V48.8664H147.244V31.1552H151.191V33.7423Z" fill="black"/>
<path d="M171.48 47.9048C170.994 48.3026 170.397 48.6012 169.689 48.8002C169.004 48.9995 168.274 49.0988 167.5 49.0988C165.554 49.0988 164.051 48.5904 162.989 47.5732C161.928 46.5561 161.398 45.0743 161.398 43.1288V34.6047H158.479V31.2879H161.398V27.2415H165.543V31.2879H170.286V34.6047H165.543V43.0292C165.543 43.8916 165.753 44.5547 166.173 45.0193C166.593 45.4613 167.201 45.6828 167.998 45.6828C168.926 45.6828 169.7 45.4392 170.319 44.953L171.48 47.9048Z" fill="black"/>
<path fill-rule="evenodd" clip-rule="evenodd" d="M71.1376 37.3265C71.1376 49.0733 61.6154 58.5955 49.8686 58.5955C38.1221 58.5955 28.5996 49.0733 28.5996 37.3265C28.5996 25.58 38.1221 16.0575 49.8686 16.0575C61.6154 16.0575 71.1376 25.58 71.1376 37.3265ZM64.4533 37.3265C64.4533 45.3812 57.9237 51.9108 49.869 51.9108C49.3106 51.9108 48.7593 51.8795 48.2172 51.8186C55.547 51.0484 61.2596 44.8487 61.2596 37.3144C61.2596 29.8183 55.6038 23.6429 48.3268 22.8226C48.8336 22.7694 49.3482 22.7421 49.869 22.7421C57.9237 22.7421 64.4533 29.2718 64.4533 37.3265ZM45.159 47.5995C49.9658 46.7504 53.622 42.474 53.622 37.3265C53.622 32.1788 49.9658 27.9025 45.159 27.0537C45.7407 26.953 46.3388 26.9005 46.9493 26.9005C52.7074 26.9005 57.3753 31.5684 57.3753 37.3265C57.3753 43.0846 52.7074 47.7525 46.9493 47.7525C46.3388 47.7525 45.7407 47.7 45.159 47.5995Z" fill="black"/>
</g>
<defs>
<clipPath id="clip0_6_6">
<rect width="200" height="72" fill="white"/>
</clipPath>
</defs>
</svg>
