<svg width="155" height="32" viewBox="0 0 155 32" fill="none" xmlns="http://www.w3.org/2000/svg">
<path d="M6.02053 0H0.533333C0.238773 0 0 0.238773 0 0.533333V10.8731L6.02053 0Z" fill="black"/>
<path d="M0 14.1988C0.0173333 14.1995 0.0348267 14.1999 0.0524801 14.1999H8.41824C9.07307 14.1999 9.58757 14.7594 9.53173 15.4107L8.80784 23.8532C8.70496 25.0529 10.3159 25.5418 10.8994 24.488L19.5923 8.78864C20.0039 8.04512 19.4652 7.13339 18.6142 7.13339H10.2484C9.5936 7.13339 9.07909 6.57397 9.13493 5.92272L9.64277 0H18.0849C25.8642 0 29.3515 9.7848 23.3348 14.7313L18.6315 18.5982C18.3234 18.8515 18.2628 19.3004 18.4925 19.6268L26.6085 31.1595C26.8576 31.5131 26.6048 32 26.1725 32H0.533333C0.238773 32 0 31.7611 0 31.4667V14.1988Z" fill="black"/>
<path d="M91.3899 17.3229V25.4089H95.856V16.3305C95.856 15.2602 95.6229 14.326 95.1557 13.5281C94.7083 12.7107 94.0661 12.0781 93.2293 11.6307C92.392 11.1635 91.4192 10.93 90.3098 10.93C89.2203 10.93 88.2565 11.1635 87.4203 11.6307C87.1979 11.7495 86.9888 11.8823 86.7925 12.0286C86.6864 12.1076 86.5845 12.1906 86.4859 12.2776V4.8H82.0197V25.4089H86.4859V17.3229C86.4859 16.8365 86.5931 16.4083 86.8075 16.0386C87.0213 15.6492 87.3131 15.3573 87.6827 15.1628C88.0528 14.9487 88.4805 14.8417 88.9669 14.8417C89.6677 14.8417 90.2421 15.0753 90.6896 15.5422C91.1568 15.9899 91.3899 16.5834 91.3899 17.3229Z" fill="black"/>
<path fill-rule="evenodd" clip-rule="evenodd" d="M41.7675 16.9144V25.4089H37.1851V4.8H45.5915C46.9541 4.8 48.1509 5.06278 49.1824 5.588C50.2133 6.09403 51.0213 6.80443 51.6053 7.71899C52.1888 8.6336 52.4805 9.68464 52.4805 10.8716C52.4805 12.0781 52.1888 13.1388 51.6053 14.0534C51.0213 14.9487 50.2043 15.6492 49.1531 16.1552C48.5669 16.4375 47.9232 16.6411 47.2219 16.7659L53.824 25.4089H48.3941L42.2475 16.9144H41.7675ZM41.7675 13.5281H45.0373C45.952 13.5281 46.6528 13.2945 47.1392 12.8274C47.6448 12.3604 47.8981 11.7278 47.8981 10.93C47.8981 10.1906 47.6549 9.5776 47.168 9.09115C46.6816 8.60443 45.9813 8.36118 45.0667 8.36118H41.7675V13.5281Z" fill="black"/>
<path fill-rule="evenodd" clip-rule="evenodd" d="M56.7712 24.7958C57.9781 25.4185 59.3499 25.73 60.8869 25.73C62.0747 25.73 63.1643 25.5255 64.1568 25.1169C65.1488 24.708 65.9957 24.095 66.6965 23.2779L64.2443 20.8258C63.816 21.3122 63.32 21.682 62.7552 21.9351C62.1909 22.1685 61.5589 22.2854 60.8576 22.2854C60.0992 22.2854 59.4373 22.1297 58.8731 21.8182C58.328 21.4875 57.9003 21.0302 57.5888 20.4463C57.4907 20.2437 57.4096 20.0281 57.3445 19.7992L67.5136 19.775C67.5915 19.4052 67.64 19.0841 67.6592 18.8117C67.6731 18.7099 67.6837 18.6107 67.6928 18.5135C67.6976 18.4654 67.7008 18.418 67.704 18.3711C67.7088 18.3005 67.7125 18.2312 67.7147 18.1633L67.7168 18.0883L67.7179 17.9943C67.7179 16.6125 67.4069 15.3864 66.784 14.3162C66.1808 13.2458 65.344 12.4091 64.2736 11.8057C63.2032 11.2026 61.9669 10.9008 60.5664 10.9008C59.1259 10.9008 57.832 11.2219 56.6837 11.864C55.5355 12.5062 54.6208 13.3919 53.9397 14.5206C53.2779 15.6297 52.9472 16.8948 52.9472 18.3154C52.9472 19.7359 53.288 21.0107 53.9685 22.1393C54.6501 23.2679 55.5845 24.1536 56.7712 24.7958ZM57.3456 16.7333C57.3675 16.6573 57.3909 16.5828 57.416 16.5099C57.4587 16.387 57.5061 16.2685 57.5595 16.1552C57.8517 15.5714 58.2507 15.1237 58.7563 14.8125C59.2816 14.4815 59.8949 14.3162 60.5952 14.3162C61.2565 14.3162 61.8112 14.4622 62.2592 14.7542L62.3195 14.7901L62.3792 14.8284C62.4299 14.862 62.4784 14.8974 62.5259 14.9344C62.5723 14.9706 62.6176 15.0086 62.6613 15.0482C62.9328 15.294 63.1488 15.6047 63.3099 15.9802C63.408 16.2 63.4869 16.4451 63.5472 16.7156L57.3456 16.7333Z" fill="black"/>
<path d="M75.5664 25.73C74.1061 25.73 72.7829 25.4088 71.5957 24.7667C70.4091 24.1245 69.4752 23.2388 68.7936 22.1101C68.1125 20.9815 67.7717 19.7164 67.7717 18.3154C67.7717 16.8948 68.1125 15.6297 68.7936 14.5206C69.4944 13.3919 70.4379 12.5062 71.6251 11.864C72.8123 11.2219 74.1451 10.9008 75.6245 10.9008C76.7333 10.9008 77.7451 11.0956 78.6603 11.4846C79.1264 11.6693 79.5664 11.9023 79.9792 12.1838C80.3931 12.4664 80.7808 12.7976 81.1413 13.1779L78.2805 16.0386C77.9499 15.6687 77.5605 15.3964 77.1131 15.2211C76.9109 15.1386 76.6944 15.0755 76.4619 15.0318C76.3557 15.0117 76.2469 14.9958 76.1349 14.9841C76.0192 14.9719 75.9003 14.964 75.7776 14.9607C75.7269 14.9591 75.6763 14.9583 75.6245 14.9583C75.4667 14.9583 75.3131 14.9672 75.1637 14.9846L75.0832 14.995L75.0331 15.0023C74.9813 15.0104 74.9296 15.0198 74.8784 15.03C74.5285 15.1003 74.2032 15.2224 73.9019 15.3964C73.4155 15.6687 73.0267 16.0578 72.7344 16.5638C72.4619 17.0505 72.3253 17.6245 72.3253 18.2862C72.3253 18.9479 72.4619 19.5318 72.7344 20.0375C73.0267 20.5435 73.4256 20.9424 73.9312 21.2344C74.4368 21.5263 75.0016 21.6724 75.6245 21.6724C76.2085 21.6724 76.7237 21.575 77.1712 21.3805C77.6384 21.1664 78.0373 20.8744 78.368 20.5047L81.2 23.3654C80.4603 24.1437 79.6235 24.7372 78.6896 25.1461C77.7552 25.5351 76.7141 25.73 75.5664 25.73Z" fill="black"/>
<path fill-rule="evenodd" clip-rule="evenodd" d="M103.483 25.7008C102.179 25.7008 101.011 25.3797 99.9803 24.7372C98.968 24.095 98.1605 23.2195 97.5573 22.1101C96.9733 21.0011 96.6811 19.736 96.6811 18.3154C96.6811 16.8948 96.9733 15.6297 97.5573 14.5206C98.1605 13.4112 98.968 12.5357 99.9803 11.8932C101.011 11.251 102.179 10.93 103.483 10.93C104.436 10.93 105.293 11.1148 106.052 11.4846C106.562 11.7271 107.01 12.0323 107.394 12.4V11.2219H111.773V25.4089H107.394V24.2594C107.131 24.5081 106.836 24.7284 106.508 24.9203C106.449 24.9555 106.387 24.9899 106.325 25.0232C106.245 25.0656 106.164 25.1065 106.081 25.1461C105.302 25.5159 104.436 25.7008 103.483 25.7008ZM104.388 21.6724C105.342 21.6724 106.11 21.361 106.694 20.7383C107.278 20.0961 107.57 19.2883 107.57 18.3154C107.57 17.9844 107.535 17.6729 107.467 17.381C107.399 17.0891 107.297 16.8166 107.161 16.5638C106.908 16.0578 106.538 15.6688 106.052 15.3964C105.789 15.2321 105.501 15.1141 105.189 15.0422C104.947 14.9862 104.69 14.9584 104.417 14.9584C104.106 14.9584 103.812 14.9948 103.535 15.0677C103.366 15.1122 103.203 15.1703 103.046 15.2419C102.946 15.2878 102.849 15.3393 102.753 15.3964C102.286 15.6688 101.907 16.0578 101.614 16.5638C101.342 17.0698 101.206 17.6537 101.206 18.3154C101.206 18.9576 101.342 19.5318 101.614 20.0375C101.887 20.5435 102.267 20.9425 102.753 21.2344C103.239 21.5263 103.785 21.6724 104.388 21.6724Z" fill="black"/>
<path d="M118.216 11.2219H113.75V25.4089H118.216V17.6148C118.216 16.7 118.43 16.019 118.858 15.5714C119.306 15.1044 119.9 14.8708 120.639 14.8708C121.009 14.8708 121.34 14.9292 121.632 15.0461C121.923 15.1628 122.167 15.3281 122.362 15.5422L125.018 12.1852C124.629 11.757 124.171 11.4458 123.646 11.251C123.14 11.037 122.546 10.93 121.865 10.93C120.308 10.93 119.092 11.3875 118.216 12.3021V11.2219Z" fill="black"/>
<path fill-rule="evenodd" clip-rule="evenodd" d="M130.654 31.7723C129.098 31.7723 127.725 31.4997 126.539 30.9552C125.371 30.4299 124.446 29.6805 123.765 28.7072L126.509 25.9633C127.015 26.5667 127.58 27.024 128.202 27.3355C128.844 27.6464 129.613 27.8021 130.508 27.8021C131.618 27.8021 132.483 27.5301 133.106 26.9851C133.748 26.4401 134.07 25.6714 134.07 24.6789V23.7828C133.766 24.026 133.425 24.237 133.048 24.4162C132.269 24.7859 131.404 24.9708 130.45 24.9708C129.146 24.9708 127.988 24.6596 126.976 24.0367C125.964 23.4141 125.166 22.5675 124.582 21.4971C123.998 20.4268 123.707 19.2398 123.707 17.936C123.707 16.6125 123.998 15.4256 124.582 14.3745C125.166 13.3042 125.964 12.4675 126.976 11.8641C127.988 11.2414 129.146 10.93 130.45 10.93C131.423 10.93 132.289 11.1148 133.048 11.4846C133.118 11.5159 133.186 11.5484 133.253 11.5823C133.585 11.7495 133.886 11.9472 134.157 12.1753V11.2219H138.536V24.5622C138.536 26.0219 138.195 27.2869 137.514 28.3568C136.833 29.4272 135.899 30.264 134.712 30.8672C133.524 31.4709 132.172 31.7723 130.654 31.7723ZM131.297 21.0011C131.919 21.0011 132.454 20.8646 132.902 20.5922C133.017 20.5253 133.124 20.4529 133.225 20.3753C133.534 20.1375 133.777 19.8498 133.953 19.5122C134.028 19.3732 134.092 19.2292 134.145 19.08C134.213 18.8865 134.263 18.6841 134.294 18.4732C134.32 18.3 134.332 18.1209 134.332 17.936C134.332 17.3521 134.206 16.8266 133.953 16.3596C133.719 15.8924 133.369 15.5227 132.902 15.2502C132.454 14.9779 131.919 14.8417 131.297 14.8417C131.113 14.8417 130.935 14.8545 130.764 14.8797L130.675 14.8943L130.596 14.9089C130.426 14.943 130.263 14.9901 130.107 15.0502C130.019 15.0838 129.934 15.1216 129.851 15.1633C129.797 15.1906 129.744 15.2195 129.691 15.2502C129.224 15.5227 128.864 15.8924 128.611 16.3596C128.479 16.6029 128.381 16.862 128.318 17.137C128.26 17.3899 128.231 17.6563 128.231 17.936C128.231 18.4808 128.358 18.9964 128.611 19.4831C128.864 19.95 129.214 20.3198 129.662 20.5922C129.913 20.7386 130.186 20.8458 130.482 20.9136C130.737 20.9719 131.009 21.0011 131.297 21.0011Z" fill="black"/>
<path fill-rule="evenodd" clip-rule="evenodd" d="M143.411 24.7958C144.617 25.4185 145.989 25.73 147.526 25.73C148.713 25.73 149.803 25.5255 150.795 25.1169C151.788 24.708 152.634 24.095 153.335 23.2779L150.883 20.8258C150.455 21.3122 149.959 21.682 149.394 21.9351C148.83 22.1685 148.197 22.2854 147.497 22.2854C146.738 22.2854 146.076 22.1297 145.512 21.8182C145.123 21.5823 144.794 21.2818 144.524 20.9167C144.481 20.8586 144.439 20.7987 144.399 20.7372C144.339 20.6443 144.281 20.5471 144.228 20.4463C144.13 20.2437 144.048 20.0281 143.983 19.7992L154.153 19.775C154.191 19.5924 154.222 19.4216 154.246 19.2628C154.271 19.0997 154.289 18.9495 154.299 18.8117C154.312 18.7088 154.323 18.6083 154.332 18.5104C154.348 18.3302 154.357 18.1581 154.357 17.9943C154.357 16.6125 154.045 15.3864 153.423 14.3162C152.819 13.2458 151.983 12.4091 150.913 11.8057C149.842 11.2026 148.606 10.9008 147.205 10.9008C145.765 10.9008 144.471 11.2219 143.322 11.864C142.174 12.5062 141.26 13.3919 140.579 14.5206C139.917 15.6297 139.586 16.8948 139.586 18.3154C139.586 19.7359 139.926 21.0107 140.608 22.1393C141.289 23.2679 142.223 24.1536 143.411 24.7958ZM143.985 16.7333C144.043 16.5286 144.114 16.3357 144.198 16.1552C144.365 15.8219 144.566 15.5331 144.803 15.2888C144.885 15.2031 144.973 15.1229 145.065 15.0482C145.169 14.9625 145.279 14.8838 145.395 14.8125C145.921 14.4815 146.534 14.3162 147.234 14.3162C147.896 14.3162 148.451 14.4622 148.898 14.7542C149.077 14.8583 149.238 14.9823 149.382 15.1263C149.615 15.3589 149.805 15.6435 149.949 15.9802C150.046 16.2 150.125 16.4451 150.186 16.7156L143.985 16.7333Z" fill="black"/>
</svg>
