<svg width="200" height="72" viewBox="0 0 200 72" fill="none" xmlns="http://www.w3.org/2000/svg">
<g opacity="0.6" clip-path="url(#clip0_6_22)">
<rect width="200" height="72" fill="white"/>
<path d="M39.85 56.7068H26.3928L39.85 36.3568H53.3073L39.85 56.7068Z" fill="black"/>
<path d="M34.9261 15.3508H48.7114L34.9261 36.3571H21.1407L34.9261 15.3508Z" fill="black"/>
<path d="M80.7608 33.0538C80.7608 34.3016 80.4599 35.4717 79.8581 36.5638C79.2787 37.6556 78.354 38.5358 77.0838 39.2045C75.8357 39.8729 74.2536 40.2073 72.3371 40.2073H68.4259V49.1657H63.7462V25.8334H72.3371C74.1421 25.8334 75.6797 26.1454 76.9499 26.7694C78.2204 27.3934 79.1673 28.2513 79.7915 29.3433C80.4378 30.4353 80.7608 31.6721 80.7608 33.0538ZM72.1363 36.4299C73.4289 36.4299 74.3871 36.1404 75.0114 35.5607C75.6352 34.9593 75.9472 34.1235 75.9472 33.0538C75.9472 30.7807 74.677 29.6442 72.1363 29.6442H68.4259V36.4299H72.1363Z" fill="black"/>
<path d="M87.4256 33.5218C88.0274 32.5412 88.8073 31.7724 89.7655 31.2153C90.7462 30.6581 91.8604 30.3796 93.1085 30.3796V35.2933H91.8714C90.4008 35.2933 89.2866 35.6387 88.5288 36.3299C87.7935 37.0207 87.4256 38.2239 87.4256 39.9399V49.1657H82.7459V30.647H87.4256V33.5218Z" fill="black"/>
<path d="M103.147 49.4666C101.364 49.4666 99.7597 49.0767 98.3336 48.2969C96.9075 47.4946 95.7819 46.369 94.9576 44.9205C94.1553 43.4719 93.754 41.8008 93.754 39.9064C93.754 38.0124 94.1663 36.3409 94.991 34.8923C95.8378 33.4437 96.9855 32.3295 98.4341 31.5495C99.8826 30.7473 101.498 30.3461 103.281 30.3461C105.064 30.3461 106.679 30.7473 108.128 31.5495C109.576 32.3295 110.713 33.4437 111.538 34.8923C112.385 36.3409 112.808 38.0124 112.808 39.9064C112.808 41.8008 112.373 43.4719 111.504 44.9205C110.657 46.369 109.498 47.4946 108.028 48.2969C106.579 49.0767 104.952 49.4666 103.147 49.4666ZM103.147 45.3883C103.994 45.3883 104.785 45.1879 105.521 44.7869C106.278 44.3635 106.88 43.7393 107.326 42.915C107.771 42.0903 107.994 41.0875 107.994 39.9064C107.994 38.1459 107.526 36.7977 106.59 35.8616C105.677 34.9033 104.551 34.4244 103.214 34.4244C101.877 34.4244 100.751 34.9033 99.8381 35.8616C98.9465 36.7977 98.501 38.1459 98.501 39.9064C98.501 41.6669 98.9354 43.0264 99.8046 43.9847C100.696 44.9205 101.81 45.3883 103.147 45.3883Z" fill="black"/>
<path d="M119.582 45.4553H124.608V49.1657H114.902V22.9586H119.582V45.4553Z" fill="black"/>
<path d="M128.24 28.4407C127.416 28.4407 126.724 28.1845 126.168 27.6719C125.633 27.1371 125.365 26.4797 125.365 25.6997C125.365 24.9197 125.633 24.2734 126.168 23.7609C126.724 23.226 127.416 22.9586 128.24 22.9586C129.065 22.9586 129.744 23.226 130.279 23.7609C130.836 24.2734 131.115 24.9197 131.115 25.6997C131.115 26.4797 130.836 27.1371 130.279 27.6719C129.744 28.1845 129.065 28.4407 128.24 28.4407ZM130.546 30.647V49.1657H125.867V30.647H130.546Z" fill="black"/>
<path d="M144.094 30.3796C146.3 30.3796 148.083 31.0816 149.443 32.4855C150.802 33.8672 151.482 35.806 151.482 38.3019V49.1657H146.802V38.9371C146.802 37.4661 146.434 36.3409 145.699 35.5607C144.963 34.7584 143.961 34.3575 142.69 34.3575C141.398 34.3575 140.373 34.7584 139.615 35.5607C138.88 36.3409 138.512 37.4661 138.512 38.9371V49.1657H133.832V30.647H138.512V32.9535C139.136 32.1512 139.927 31.5272 140.885 31.0816C141.866 30.6136 142.935 30.3796 144.094 30.3796Z" fill="black"/>
<path d="M171.809 39.5054C171.809 40.1738 171.765 40.7756 171.676 41.3104H158.138C158.249 42.6476 158.717 43.6948 159.541 44.4526C160.366 45.2103 161.38 45.5892 162.583 45.5892C164.322 45.5892 165.559 44.8425 166.294 43.3494H171.341C170.807 45.1323 169.781 46.603 168.266 47.7621C166.751 48.8983 164.89 49.4666 162.684 49.4666C160.901 49.4666 159.296 49.0767 157.87 48.2969C156.466 47.4946 155.363 46.369 154.561 44.9205C153.781 43.4719 153.391 41.8008 153.391 39.9064C153.391 37.9899 153.781 36.3074 154.561 34.8588C155.341 33.4103 156.433 32.2961 157.837 31.5161C159.24 30.7361 160.856 30.3461 162.684 30.3461C164.444 30.3461 166.015 30.725 167.397 31.4827C168.801 32.2404 169.882 33.3212 170.64 34.7253C171.419 36.1069 171.809 37.7001 171.809 39.5054ZM166.962 38.1683C166.94 36.9647 166.505 36.0065 165.659 35.2933C164.812 34.5579 163.776 34.1905 162.55 34.1905C161.391 34.1905 160.411 34.5469 159.608 35.2602C158.829 35.951 158.349 36.9202 158.171 38.1683H166.962Z" fill="black"/>
</g>
<defs>
<clipPath id="clip0_6_22">
<rect width="200" height="72" fill="white"/>
</clipPath>
</defs>
</svg>
