<svg width="200" height="72" viewBox="0 0 200 72" fill="none" xmlns="http://www.w3.org/2000/svg">
<g opacity="0.6" clip-path="url(#clip0_6_15)">
<rect width="200" height="72" fill="white"/>
<path d="M82.3587 47.5816C81.8624 47.1563 81.5776 46.7104 81.5513 46.2421L82.3587 47.5816ZM82.3587 47.5816L82.3612 47.5837C82.9009 48.0254 83.6611 48.236 84.622 48.236H86.7247H86.8653V48.0954V47.8198V47.6792H86.7247H85.6688L85.3022 47.6125L85.2955 47.6112L85.2884 47.6108C85.0699 47.5925 84.8268 47.4444 84.5624 47.1154C84.3338 46.7801 84.2108 46.2967 84.2108 45.6478V34.8578C84.2108 33.7072 83.9168 32.7545 83.3179 32.0117L83.3162 32.0094C82.9242 31.5439 82.3095 31.1998 81.4913 30.9657C80.691 30.7071 79.6526 30.5804 78.3822 30.5804C77.0828 30.5804 75.8913 31.0302 74.8116 31.922C73.9483 32.6166 73.299 33.3609 72.8694 34.1559V30.8589V30.7183H72.7284H70.3155H70.1749V30.8589V48.0954V48.236H70.3155H72.7284H72.8694V48.0954V35.8575C72.8694 34.9966 73.4207 33.9971 74.5851 32.8553L74.5864 32.8543C75.7357 31.705 77.0223 31.1374 78.4511 31.1374C79.1479 31.1374 79.7222 31.2496 80.1801 31.467C81.0492 31.9352 81.5167 33.0239 81.5167 34.8233V45.6478V45.652V45.6562L81.5513 46.2417L82.3587 47.5816ZM68.0017 25.5433L68.1314 25.5931L68.1827 25.4643L68.3208 25.1196L68.3762 24.9811L68.2348 24.934C65.8773 24.1482 63.5527 23.7547 61.2611 23.7547C58.9895 23.7547 57.26 24.2875 56.0977 25.378C54.94 26.4415 54.3637 27.8364 54.3637 29.5489C54.3637 31.7096 55.2599 33.3856 57.0461 34.5611C57.8343 35.0941 58.7026 35.5802 59.6505 36.0196L59.6534 36.0208C60.5959 36.4346 61.5272 36.8371 62.4472 37.228L62.4484 37.2285C63.3851 37.617 64.2413 38.0393 65.0161 38.4953C66.7256 39.5073 67.5672 40.9004 67.5672 42.6831C67.5672 44.3162 66.922 45.5461 65.6313 46.3918C64.3485 47.2246 62.7904 47.6446 60.9508 47.6446C59.7014 47.6446 58.4745 47.4632 57.27 47.0995C56.0869 46.7125 55.1265 46.2254 54.3845 45.6407L54.2615 45.544L54.1781 45.677L54.0059 45.9527L53.9354 46.0657L54.0442 46.1424C56.0711 47.5633 58.5137 48.2706 61.3645 48.2706C62.8913 48.2706 64.2275 48.0971 65.3702 47.7472L65.3719 47.7468C66.5492 47.3702 67.5488 46.6633 68.3691 45.632C69.1953 44.5935 69.6065 43.3437 69.6065 41.8903C69.6065 40.4285 69.3629 39.2205 68.8667 38.2748C68.3746 37.3144 67.7277 36.5602 66.9245 36.0168C66.1355 35.4831 65.2664 35.008 64.3168 34.5912C63.3717 34.1762 62.4263 33.8073 61.4809 33.4844C60.5667 33.1416 59.7222 32.7762 58.9465 32.3885C57.2371 31.4884 56.403 30.233 56.403 28.6181C56.403 27.28 56.9022 26.2427 57.8985 25.4898C58.8998 24.7332 60.3023 24.3461 62.1231 24.3461C63.9639 24.3461 65.9236 24.7439 68.0017 25.5433ZM87.6017 33.0002L87.6013 33.001C86.0057 34.62 85.2167 36.8889 85.2167 39.7875C85.2167 42.6835 85.9815 44.8542 87.5379 46.2692C89.0852 47.6755 91.0857 48.374 93.5275 48.374C95.9968 48.374 98.0336 47.5687 99.6254 45.9539C101.244 44.335 102.045 42.0659 102.045 39.167C102.045 36.2709 101.28 34.1002 99.7238 32.6854C98.1762 31.2786 96.164 30.5804 93.6997 30.5804C91.2525 30.5804 89.2161 31.3859 87.6017 33.0002ZM89.5376 33.4251L89.5385 33.4243C90.6645 31.8929 92.072 31.1374 93.7685 31.1374C95.4738 31.1374 96.8346 31.7853 97.8643 33.0836C98.8927 34.3803 99.4194 36.3993 99.4194 39.167C99.4194 41.9067 98.8485 44.0339 97.7237 45.564C96.5981 47.0724 95.1902 47.8173 93.4928 47.8173C91.788 47.8173 90.4268 47.1692 89.3971 45.8709C88.3687 44.5739 87.842 42.5664 87.842 39.8219C87.842 37.0583 88.4133 34.9319 89.5376 33.4251ZM125.533 30.9663L125.43 31.069L125.536 31.1683C125.867 31.4786 126.043 31.9418 126.043 32.5826C126.043 33.2295 125.909 33.779 125.648 34.2364L125.645 34.2417L125.642 34.2473L120.786 44.7641L115.629 30.8102L115.595 30.7183H115.497H113.084H112.883L112.952 30.9073L114.208 34.3346L109.41 44.7637L104.253 30.8102L104.219 30.7183H104.121H101.708H101.505L101.576 30.9079L107.988 48.1446L108.022 48.236H108.12H108.465H108.555L108.593 48.1538L114.519 35.1226L119.364 48.1446L119.398 48.236H119.496H119.841H119.931L119.969 48.1538L126.243 34.3645L126.244 34.3616C126.527 33.7028 126.669 33.0521 126.669 32.4102C126.669 32.2384 126.645 32.0572 126.598 31.867C126.57 31.6554 126.466 31.4311 126.302 31.196C126.232 31.0795 126.165 30.9824 126.102 30.9068C126.04 30.8324 125.974 30.769 125.902 30.7331L125.811 30.6878L125.74 30.7595L125.533 30.9663Z" fill="black" stroke="black" stroke-width="0.281209"/>
<path d="M132.009 24.2134C132.656 23.2217 133.706 22.4535 135.162 22.3855L134.858 45.8876V45.8893C134.858 46.102 134.924 46.3305 135.045 46.5728C135.611 47.7051 136.961 48.2359 138.997 48.2359H140.066H140.207V48.0954V47.8197V47.6792H140.066H139.01L138.643 47.6125L138.637 47.6112L138.63 47.6108C138.411 47.5925 138.168 47.4444 137.904 47.1154C137.675 46.7801 137.552 46.2967 137.552 45.6478V22.275V22.1367L137.414 22.1344L135.307 22.1L135.166 22.0977L135.166 22.1018C132.807 22.1443 131.062 22.699 129.966 23.7953C128.846 24.8919 128.304 26.7198 128.304 29.2386V30.7183H127.721H127.58V30.8589V31.4159V31.5565H127.721H128.304V48.0954V48.2359H128.445H130.858H130.998V48.0954V31.5565H133.581H133.721V31.4159V30.8589V30.7183H133.581H130.998V29.2386C130.998 26.878 131.343 25.2128 132.009 24.2146L132.009 24.2134ZM150.366 39.6688C149.896 39.6311 149.38 39.6124 148.818 39.6124C148.193 39.6124 147.511 39.6471 146.773 39.7162C145.286 39.8085 144.056 39.9817 143.085 40.2375C142.116 40.4929 141.392 40.834 140.93 41.2712C140.486 41.6918 140.2 42.0929 140.098 42.4746C140.003 42.829 139.955 43.1631 139.955 43.4763C139.955 43.7594 139.979 44.0426 140.026 44.3254C140.225 45.6603 140.747 46.6787 141.603 47.361C142.457 48.042 143.627 48.374 145.094 48.374C146.355 48.374 147.452 48.1142 148.379 47.5887C149.17 47.14 149.832 46.5011 150.366 45.6753V45.8893C150.366 46.3188 150.669 46.7905 151.2 47.2989C151.818 47.9386 152.937 48.2359 154.506 48.2359H155.574H155.715V48.0954V47.8197V47.6792H155.574H154.518L154.152 47.6125L154.145 47.6112L154.138 47.6108C153.919 47.5925 153.677 47.4444 153.412 47.1154C153.183 46.7801 153.06 46.2967 153.06 45.6478V34.0994C153.06 33.3222 152.744 32.5892 152.129 31.9029C151.725 31.4506 151.117 31.1211 150.32 30.9042C149.522 30.6872 148.526 30.5804 147.335 30.5804C145.199 30.5804 143.099 31.0565 141.037 32.0067L140.897 32.0709L140.974 32.2042L141.111 32.4455L141.181 32.567L141.303 32.4981C141.815 32.2084 142.629 31.9133 143.752 31.6153L143.753 31.6148C144.895 31.2952 145.881 31.1374 146.715 31.1374C147.554 31.1374 148.223 31.2511 148.727 31.4705V31.4705L148.732 31.4725C149.248 31.6744 149.586 31.9138 149.771 32.18C149.971 32.4692 150.126 32.7685 150.237 33.078L150.239 33.0839L150.241 33.0896C150.373 33.374 150.406 33.5929 150.37 33.7569C150.346 33.8516 150.332 33.936 150.332 34.0046C150.332 34.039 150.335 34.0779 150.349 34.1151C150.353 34.1271 150.359 34.1396 150.366 34.152V39.6688ZM142.718 44.2916L142.718 44.2895C142.695 44.063 142.684 43.8612 142.684 43.6831C142.684 42.6964 142.942 41.9411 143.44 41.3995C143.682 41.1363 144.074 40.9048 144.632 40.7133C145.188 40.5224 145.898 40.3746 146.765 40.2719C147.38 40.2036 147.996 40.1694 148.611 40.1694C149.206 40.1694 149.791 40.1891 150.366 40.2287V44.2628C150.3 44.988 149.805 45.7708 148.829 46.6099C147.889 47.4165 146.829 47.8172 145.646 47.8172C144.761 47.8172 144.088 47.5257 143.608 46.9535C143.123 46.3759 142.82 45.4952 142.718 44.2916ZM158.646 22.2405V22.1H158.505H156.092H155.952V22.2405V48.0954V48.2359H156.092H158.505H158.646V48.0954V39.8401L159.422 38.9486L165.697 48.1746L165.739 48.2359H165.814H168.227H168.492L168.343 48.0166L160.993 37.2133L166.54 30.9521L166.747 30.7183H166.434H166.09H166.027L165.984 30.7656L158.646 39.0379V22.2405ZM181.749 46.8681L181.695 46.7438L181.569 46.7922C179.795 47.4744 177.767 47.8172 175.483 47.8172C173.897 47.8172 172.617 47.1725 171.631 45.8738C170.67 44.5768 170.177 42.5227 170.177 39.684C170.177 39.0671 170.207 38.4705 170.266 37.8942H182.447H182.587V37.7535V37.7529V37.7522V37.7515V37.7509V37.7502V37.7495V37.7488V37.7482V37.7475V37.7468V37.7461V37.7454V37.7448V37.7441V37.7434V37.7428V37.7421V37.7414V37.7407V37.7401V37.7394V37.7387V37.7381V37.7374V37.7367V37.736V37.7353V37.7347V37.734V37.7333V37.7327V37.732V37.7313V37.7306V37.73V37.7293V37.7286V37.728V37.7273V37.7266V37.7259V37.7253V37.7246V37.7239V37.7233V37.7226V37.7219V37.7212V37.7205V37.7199V37.7192V37.7185V37.7179V37.7172V37.7165V37.7158V37.7152V37.7145V37.7138V37.7131V37.7125V37.7118V37.7111V37.7105V37.7098V37.7091V37.7084V37.7077V37.7071V37.7064V37.7057V37.7051V37.7044V37.7037V37.703V37.7024V37.7017V37.701V37.7004V37.6997V37.699V37.6983V37.6976V37.697V37.6963V37.6956V37.695V37.6943V37.6936V37.6929V37.6923V37.6916V37.6909V37.6903V37.6896V37.6889V37.6882V37.6876V37.6869V37.6862V37.6856V37.6848V37.6842V37.6835V37.6828V37.6822V37.6815V37.6808V37.6801V37.6795V37.6788V37.6781V37.6775V37.6768V37.6761V37.6754V37.6748V37.6741V37.6734V37.6728V37.6721V37.6714V37.6707V37.67V37.6694V37.6687V37.668V37.6674V37.6667V37.666V37.6653V37.6647V37.664V37.6633V37.6627V37.6619V37.6613V37.6606V37.6599V37.6593V37.6586V37.6579V37.6572V37.6566V37.6559V37.6552V37.6546V37.6539V37.6532V37.6525V37.6519V37.6512V37.6505V37.6499V37.6492V37.6485V37.6478V37.6471V37.6465V37.6458V37.6451V37.6445V37.6438V37.6431V37.6424V37.6418V37.6411V37.6404V37.6398V37.6391V37.6384V37.6377V37.6371V37.6364V37.6357V37.635V37.6344V37.6337V37.633V37.6323V37.6317V37.631V37.6303V37.6297V37.629V37.6283V37.6276V37.627V37.6263V37.6256V37.625V37.6242V37.6236V37.6229V37.6222V37.6216V37.6209V37.6202V37.6195V37.6189V37.6182V37.6175V37.6169V37.6162V37.6155V37.6148V37.6142V37.6135V37.6128V37.6122V37.6115V37.6108V37.6101V37.6094V37.6088V37.6081V37.6074V37.6068V37.6061V37.6054V37.6047V37.6041V37.6034V37.6027V37.6021V37.6014V37.6007V37.6V37.5994V37.5987V37.598V37.5973V37.5966V37.596V37.5953V37.5946V37.594V37.5933V37.5926V37.5919V37.5913V37.5906V37.5899V37.5893V37.5886V37.5879V37.5872V37.5865V37.5859V37.5852V37.5845V37.5839V37.5832V37.5825V37.5818V37.5812V37.5805V37.5798V37.5792V37.5785V37.5778V37.5771V37.5765V37.5758V37.5751V37.5745V37.5738V37.5731V37.5724V37.5717V37.5711V37.5704V37.5697V37.569V37.5684V37.5677V37.567V37.5664V37.5657V37.565V37.5643V37.5637V37.563V37.5623V37.5617V37.561V37.5603V37.5596V37.5589V37.5583V37.5576V37.5569V37.5563V37.5556V37.5549V37.5542V37.5536V37.5529V37.5522V37.5516V37.5509V37.5502V37.5495V37.5488V37.5482V37.5475V37.5468V37.5462V37.5455V37.5448V37.5441V37.5435V37.5428V37.5421V37.5415V37.5408V37.5401V37.5394V37.5388V37.5381V37.5374V37.5368V37.536V37.5354V37.5347V37.534V37.5334V37.5327V37.532V37.5313V37.5307V37.53V37.5293V37.5287V37.528V37.5273V37.5266V37.526V37.5253V37.5246V37.5239V37.5233V37.5226V37.5219V37.5212V37.5206V37.5199V37.5192V37.5186V37.5179V37.5172V37.5165V37.5159V37.5152V37.5145V37.5139V37.5132V37.5125V37.5118V37.5111V37.5105V37.5098V37.5091V37.5084V37.5078V37.5071V37.5064V37.5058V37.5051V37.5044V37.5037V37.5031V37.5024V37.5017V37.5011V37.5004V37.4997V37.499V37.4983V37.4977V37.497V37.4963V37.4957V37.495V37.4943V37.4936V37.493V37.4923V37.4916V37.491V37.4903V37.4896V37.4889V37.4883V37.4876V37.4869V37.4862V37.4856V37.4849V37.4842V37.4835V37.4829V37.4822V37.4815V37.4808V37.4802V37.4795V37.4788V37.4782V37.4775V37.4768V37.4762V37.4754V37.4748V37.4741V37.4734V37.4728V37.4721V37.4714V37.4707V37.4701V37.4694V37.4687V37.4681V37.4674V37.4667V37.466V37.4654V37.4647V37.464V37.4634V37.4627V37.462V37.4613V37.4606V37.46V37.4593V37.4586V37.458V37.4573V37.4566V37.4559V37.4553V37.4546V37.4539V37.4533V37.4526V37.4519V37.4512V37.4506V37.4499V37.4492V37.4485V37.4478V37.4472V37.4465V37.4458V37.4452V37.4445V37.4438V37.4431V37.4425V37.4418V37.4411V37.4405V37.4398V37.4391V37.4384V37.4377V37.4371V37.4364V37.4357V37.4351V37.4344V37.4337V37.433V37.4324V37.4317V37.431V37.4304V37.4297V37.429V37.4283V37.4277V37.427V37.4263V37.4257V37.4249V37.4243V37.4236V37.4229V37.4223V37.4216V37.4209V37.4202V37.4196V37.4189V37.4182V37.4176V37.4169V37.4162V37.4155V37.4149V37.4142V37.4135V37.4129V37.4122V37.4115V37.4108V37.4101V37.4095V37.4088C182.587 35.1745 181.935 33.4645 180.609 32.3044C179.293 31.1535 177.674 30.5804 175.759 30.5804C173.379 30.5804 171.411 31.3869 169.866 33.0024C168.317 34.6217 167.551 36.8901 167.551 39.7875C167.551 42.6818 168.281 44.8517 169.767 46.2667C171.245 47.6746 173.155 48.374 175.483 48.374C177.819 48.374 179.916 48.0157 181.774 47.2959L181.909 47.2434L181.852 47.1095L181.749 46.8681ZM178.716 32.6692C179.498 33.6686 179.92 35.2166 179.96 37.3372H170.336C170.621 35.4102 171.249 33.9063 172.21 32.8139C173.222 31.689 174.358 31.1374 175.621 31.1374C176.886 31.1374 177.915 31.6451 178.716 32.6692Z" fill="black" stroke="black" stroke-width="0.281209"/>
<path d="M185.628 21.8787V22.7895H184.593V25.5603H183.61V22.7895H182.574V21.8787H185.628Z" fill="black"/>
<path d="M189.663 21.8235V25.5768H188.68V23.7554L187.96 24.6109H187.666L186.946 23.7554V25.5768H185.963V21.8235H186.31L187.813 23.4242L189.316 21.8235H189.663Z" fill="black"/>
<path fill-rule="evenodd" clip-rule="evenodd" d="M27.2184 42.0989L27.2034 53.9356L29.7056 53.939L29.7207 42.0469L34.2853 53.0282L36.5958 52.0677L32.0626 41.1619L40.4029 49.5238L42.1745 47.7564L33.7984 39.3589L44.7535 43.9054L45.7122 41.5942L34.7561 37.0472H46.6185V34.545H34.7846L45.7227 30.0276L44.7672 27.7148L33.8761 32.2129L42.2508 23.9237L40.4909 22.1453L32.012 30.5373L36.5812 19.5173L34.2696 18.5589L29.7366 29.492L29.7516 17.6565L27.2494 17.6533L27.2343 29.5464L22.6692 18.5643L20.3587 19.5247L24.8915 30.4294L16.5517 22.0684L14.7801 23.8355L23.1565 32.2332L12.2013 27.6866L11.2422 29.9977L22.199 34.545H10.336V37.0472H22.1708L11.2324 41.5648L12.1875 43.8775L23.0783 39.3797L14.7036 47.6688L16.4639 49.447L24.9423 41.0554L20.3735 52.0748L22.6849 53.0332L27.2184 42.0989Z" fill="black"/>
</g>
<defs>
<clipPath id="clip0_6_15">
<rect width="200" height="72" fill="white"/>
</clipPath>
</defs>
</svg>
